<svg xmlns="http://www.w3.org/2000/svg" id="Layer_1" data-name="Layer 1" viewBox="0 0 339.12 56.69"><defs><style>.cls-1{fill:#1d1d1b;}</style></defs><path d="M40.08 38.7a19.12 19.12 0 0 1-3.92 5.89 7.58 7.58 0 0 1 .53 2.25c.38 3.73 8.62 3.21 9 2.46s-.58-8.07-5.63-10.6M23.64 50a17.38 17.38 0 0 1-3.16-.3 6.93 6.93 0 0 0 5.72 6.91 6.8 6.8 0 0 0 4.08-.69h-.41c-3-.5-4-3.1-3.69-6.14a17.57 17.57 0 0 1-2.58.19M1.48 49.13c.4.75 8.47 1.44 8.85-2.29a7.67 7.67 0 0 1 .53-2.25 19.15 19.15 0 0 1-3.95-5.89c-5.03 2.5-5.84 9.72-5.43 10.43M7.09 22.89a19 19 0 0 1 4.26-6C7.48 13.71.96 13.45.35 13.85s-.65 8.48 3.27 8.39a8.15 8.15 0 0 1 3.47.64M28.92 9c0-.91.91-2.42.91-3.15s-2.42-2-3.47-3S24.34 0 23.56 0h-.08c-.79 0-1.8 1.86-2.85 2.89s-3.47 2.27-3.47 3 .92 2.24.92 3.15a11.55 11.55 0 0 1-.61 2.5c-.09.42.2.55.52 1.34h.17a17.4 17.4 0 0 1 10.67 0h.18c.32-.79.62-.92.53-1.35A11.7 11.7 0 0 1 28.92 9M37.48 24.11a16.27 16.27 0 0 0-3.71-5.32 14.82 14.82 0 0 0-9.08-4.13c-.44 0-.83-.06-1.19-.06s-.75 0-1.19.06a14.82 14.82 0 0 0-9.08 4.13 16.33 16.33 0 0 0-3.75 5.32 17.31 17.31 0 0 0-.11 13.53 16.55 16.55 0 0 0 3.17 4.93 15.07 15.07 0 0 0 8.18 4.57 14.87 14.87 0 0 0 2.76.26h1.11a15 15 0 0 0 9.82-4.79 16.47 16.47 0 0 0 3.17-4.93 17.28 17.28 0 0 0-.1-13.57M46.64 13.85c-.61-.4-7.16-.14-11 3.05a19.07 19.07 0 0 1 4.26 6 8.16 8.16 0 0 1 3.47-.64c3.92.09 4-7.91 3.27-8.39M333.02 39.21c0 2.7-2.8 4.2-5.9 4.2-5.15 0-6.6-5.15-6.6-5.15l-5.35 2.4s1.75 8.45 12 8.45c7.45 0 12-4.2 12-9.9 0-6.5-4.65-8.7-10-10.8-4.8-1.9-7.15-2.95-7.15-5.75 0-2.2 2-4 5.45-4 4.75 0 6.35 4.7 6.35 4.7l5.3-2.4s-2.1-8-11.65-8c-7.45 0-11.55 4.6-11.55 9.75 0 6.2 5.25 9.05 10.5 11 4.15 1.5 6.65 2.75 6.65 5.6m-37.72-4.15c0 5-2.55 8.35-7.5 8.35s-7.5-3.35-7.5-8.35V13.51h-6v22.3c0 7.7 5 13.3 13.5 13.3s13.5-5.6 13.5-13.3v-22.3h-6v21.55zm-41.32 13.35h7.1l-11.35-18 10.8-17h-6.85l-7.5 12.35-7.5-12.35h-7.1l10.85 16.85-11.4 18.15h6.85l8-13.35zm-48.27-28l5.25 14.45h-10.53zm-16.7 28h6.42l3-8h14.7l3 8h6.5l-13.35-35h-6.8zm-29.49 0h21v-5.7h-15v-29.3h-6v35zm-28.09-28.05l5.25 14.45h-10.5zm-16.7 28h6.4l3-8h14.7l2.95 8h6.5l-13.35-35h-6.8zm-23.35-5.1a12.4001008 12.4001008 0 0 1-.1-24.8 12.69 12.69 0 0 1 9.25 3.9l3.95-4.3s-4.25-5.3-13.2-5.3c-10.25.05-18.45 7.8-18.45 18.14s8.2 18.1 18.55 18.1c8.5 0 13.45-3.75 13.45-3.75V28.81h-14v5.6h8.1v7.45s-2.55 1.55-7.55 1.55" class="cls-1"/></svg>